<svg xmlns="http://www.w3.org/2000/svg" xmlns:xlink="http://www.w3.org/1999/xlink" width="1366" zoomAndPan="magnify" viewBox="0 0 1024.5 576" height="768" preserveAspectRatio="xMidYMid meet" version="1.0"><defs><clipPath id="87eee90513"><path d="M 0 0.140625 L 1024 0.140625 L 1024 575.859375 L 0 575.859375 Z M 0 0.140625 " clip-rule="nonzero"/></clipPath><clipPath id="ed3b471fa7"><path d="M 584 0.140625 L 1024 0.140625 L 1024 480 L 584 480 Z M 584 0.140625 " clip-rule="nonzero"/></clipPath><clipPath id="9cb9691dbc"><path d="M 935 42 L 1024 42 L 1024 195 L 935 195 Z M 935 42 " clip-rule="nonzero"/></clipPath><clipPath id="75bed40330"><path d="M 1101.109375 46.472656 L 1087.769531 201.824219 L 927.933594 188.101562 L 941.273438 32.75 Z M 1101.109375 46.472656 " clip-rule="nonzero"/></clipPath><clipPath id="c89fef7629"><path d="M 1101.109375 46.472656 L 1087.769531 201.824219 L 927.933594 188.101562 L 941.273438 32.75 Z M 1101.109375 46.472656 " clip-rule="nonzero"/></clipPath></defs><g clip-path="url(#87eee90513)"><path fill="#ffffff" d="M 0 0.140625 L 1024 0.140625 L 1024 575.859375 L 0 575.859375 Z M 0 0.140625 " fill-opacity="1" fill-rule="nonzero"/><path fill="#ffffff" d="M 0 0.140625 L 1024 0.140625 L 1024 575.859375 L 0 575.859375 Z M 0 0.140625 " fill-opacity="1" fill-rule="nonzero"/></g><g clip-path="url(#ed3b471fa7)"><path fill="#f4f4fe" d="M 668.730469 -106.808594 C 653.480469 -93.34375 640.117188 -76.324219 629.21875 -55.085938 C 558.871094 81.953125 557.691406 344.363281 723.855469 415.203125 C 794.476562 445.3125 880.34375 457.863281 955.597656 471.617188 C 1068.382812 492.230469 1160.921875 474.964844 1240.734375 386.222656 C 1304.046875 315.820312 1369.476562 222.121094 1373.199219 124.035156 C 1375.222656 70.804688 1355.136719 14.714844 1312.28125 -16.917969 C 1276.976562 -42.96875 1231.609375 -49.703125 1188.785156 -59.234375 C 1042.660156 -91.757812 804.898438 -227.027344 668.730469 -106.808594 " fill-opacity="1" fill-rule="nonzero"/></g><path fill="#fecdc4" d="M 59.796875 420.816406 C 68.71875 426.644531 74.125 437.8125 76.65625 448.769531 C 79.183594 459.65625 78.832031 470.332031 77.144531 480.65625 C 75.53125 491.050781 72.652344 501.09375 66.820312 509.804688 C 60.992188 518.515625 52.351562 525.890625 42.097656 529.75 C 31.773438 533.683594 19.972656 534.105469 9.859375 530.382812 C -0.183594 526.589844 -8.542969 518.65625 -16.199219 509.945312 C -23.855469 501.304688 -30.878906 491.964844 -33.617188 481.21875 C -36.425781 470.472656 -35.023438 458.320312 -30.105469 447.855469 C -25.1875 437.390625 -16.761719 428.609375 -6.785156 423.273438 C 3.117188 417.933594 14.636719 416.039062 26.574219 415.335938 C 38.515625 414.5625 50.878906 415.054688 59.796875 420.816406 Z M 59.796875 420.816406 " fill-opacity="1" fill-rule="nonzero"/><g clip-path="url(#9cb9691dbc)"><g clip-path="url(#75bed40330)"><g clip-path="url(#c89fef7629)"><path fill="#fecdc4" d="M 1081.699219 174.566406 C 1072.890625 185.808594 1057.355469 191.75 1042.433594 193.871094 C 1027.605469 196 1013.386719 194.308594 999.792969 190.871094 C 986.097656 187.523438 973.011719 182.523438 962.050781 173.742188 C 951.085938 164.957031 942.230469 152.574219 938.246094 138.4375 C 934.175781 124.195312 934.96875 108.390625 941.097656 95.308594 C 947.316406 82.332031 958.875 72.078125 971.382812 62.851562 C 983.796875 53.621094 997.078125 45.3125 1011.742188 42.886719 C 1026.417969 40.367188 1042.484375 43.636719 1055.894531 51.402344 C 1069.308594 59.167969 1080.066406 71.429688 1086.050781 85.359375 C 1092.046875 99.199219 1093.257812 114.800781 1092.824219 130.824219 C 1092.488281 146.859375 1090.414062 163.3125 1081.699219 174.566406 Z M 1081.699219 174.566406 " fill-opacity="1" fill-rule="nonzero"/></g></g></g></svg>