<svg xmlns="http://www.w3.org/2000/svg" xmlns:xlink="http://www.w3.org/1999/xlink" width="500" zoomAndPan="magnify" viewBox="0 0 375 374.999991" height="500" preserveAspectRatio="xMidYMid meet" version="1.0"><defs><clipPath id="5f5abd1b39"><path d="M 51.738281 139 L 323.183594 139 L 323.183594 363.671875 L 51.738281 363.671875 Z M 51.738281 139 " clip-rule="nonzero"/></clipPath><clipPath id="5f38baadf2"><path d="M 51.738281 136.054688 L 323.183594 136.054688 L 323.183594 353.804688 L 51.738281 353.804688 Z M 51.738281 136.054688 " clip-rule="nonzero"/></clipPath><clipPath id="932aeb4d81"><path d="M 51.738281 11.324219 L 323.183594 11.324219 L 323.183594 341 L 51.738281 341 Z M 51.738281 11.324219 " clip-rule="nonzero"/></clipPath></defs><g clip-path="url(#5f5abd1b39)"><path fill="#e69889" d="M 265.15625 361.703125 L 265.15625 363.671875 L 109.855469 363.671875 L 109.855469 361.703125 Z M 236.828125 327.863281 L 227.523438 327.804688 L 227.523438 310.886719 C 230.40625 311.039062 233.496094 311.183594 236.828125 311.320312 Z M 223.097656 327.773438 L 211.585938 327.703125 L 211.585938 309.789062 C 214.941406 310.09375 218.75 310.378906 223.097656 310.636719 Z M 207.160156 327.671875 L 190.328125 327.566406 L 190.328125 306.265625 C 194.046875 307.441406 199.046875 308.472656 207.160156 309.355469 Z M 184.683594 327.566406 L 167.851562 327.671875 L 167.851562 309.355469 C 175.96875 308.472656 180.96875 307.441406 184.683594 306.265625 Z M 163.429688 327.703125 L 151.917969 327.773438 L 151.917969 310.636719 C 156.265625 310.378906 160.074219 310.09375 163.429688 309.789062 Z M 147.492188 327.804688 L 138.1875 327.863281 L 138.1875 311.320312 C 141.515625 311.183594 144.609375 311.039062 147.492188 310.886719 Z M 260.222656 309.652344 C 209.160156 308.429688 195.710938 306.121094 187.507812 302.859375 C 179.304688 306.121094 165.855469 308.429688 114.792969 309.652344 C 63.734375 310.875 51.738281 304.898438 51.738281 304.898438 L 51.738281 307.300781 C 51.738281 307.300781 63.734375 313.277344 114.792969 312.054688 C 122.410156 311.871094 129.183594 311.664062 135.230469 311.4375 L 135.230469 351.523438 L 135.949219 351.523438 L 135.871094 352.730469 L 187.507812 351.523438 L 239.144531 352.730469 L 239.066406 351.523438 L 239.785156 351.523438 L 239.785156 311.4375 C 245.832031 311.664062 252.605469 311.871094 260.222656 312.054688 C 311.28125 313.277344 323.277344 307.300781 323.277344 307.300781 L 323.277344 304.898438 C 323.277344 304.898438 311.28125 310.875 260.222656 309.652344 Z M 265.15625 281.050781 L 265.15625 283.019531 L 109.855469 283.019531 L 109.855469 281.050781 Z M 260.222656 200.410156 L 260.222656 202.378906 L 187.507812 200.410156 L 114.792969 202.378906 L 114.792969 200.410156 L 187.507812 198.441406 Z M 236.828125 247.210938 L 227.523438 247.152344 L 227.523438 230.234375 C 230.40625 230.386719 233.496094 230.53125 236.828125 230.667969 Z M 223.097656 247.121094 L 211.585938 247.050781 L 211.585938 229.140625 C 214.941406 229.441406 218.75 229.726562 223.097656 229.988281 Z M 207.160156 247.023438 L 190.328125 246.914062 L 190.328125 225.617188 C 194.046875 226.789062 199.046875 227.824219 207.160156 228.703125 Z M 184.683594 246.914062 L 167.851562 247.023438 L 167.851562 228.703125 C 175.96875 227.824219 180.96875 226.789062 184.683594 225.617188 Z M 163.429688 247.050781 L 151.917969 247.121094 L 151.917969 229.988281 C 156.265625 229.726562 160.074219 229.441406 163.429688 229.140625 Z M 147.492188 247.152344 L 138.1875 247.210938 L 138.1875 230.667969 C 141.515625 230.53125 144.609375 230.386719 147.492188 230.234375 Z M 260.222656 229 C 209.160156 227.777344 195.710938 225.46875 187.507812 222.210938 C 179.304688 225.46875 165.855469 227.777344 114.792969 229 C 63.734375 230.222656 51.738281 224.246094 51.738281 224.246094 L 51.738281 226.648438 C 51.738281 226.648438 63.734375 232.625 114.792969 231.40625 C 122.410156 231.222656 129.183594 231.015625 135.230469 230.785156 L 135.230469 270.871094 L 135.949219 270.871094 L 135.871094 272.078125 L 187.507812 270.871094 L 239.144531 272.078125 L 239.066406 270.871094 L 239.785156 270.871094 L 239.785156 230.785156 C 245.832031 231.015625 252.605469 231.222656 260.222656 231.40625 C 311.28125 232.625 323.277344 226.648438 323.277344 226.648438 L 323.277344 224.246094 C 323.277344 224.246094 311.28125 230.222656 260.222656 229 Z M 216.023438 177.167969 L 204.390625 176.886719 L 204.390625 149.453125 C 207.707031 150.296875 211.566406 151.117188 216.023438 151.847656 Z M 199.96875 176.78125 L 190.328125 176.546875 L 190.328125 144.597656 C 192.335938 145.558594 195.480469 146.871094 199.96875 148.226562 Z M 184.683594 176.546875 L 175.046875 176.78125 L 175.046875 148.226562 C 179.535156 146.871094 182.679688 145.558594 184.683594 144.597656 Z M 170.625 176.886719 L 158.992188 177.167969 L 158.992188 151.847656 C 163.449219 151.117188 167.308594 150.296875 170.625 149.453125 Z M 257.972656 150.964844 C 205.347656 151.835938 187.507812 139.558594 187.507812 139.558594 C 187.507812 139.558594 169.667969 151.835938 117.042969 150.964844 C 64.417969 150.09375 59.429688 145.28125 59.429688 145.28125 L 59.429688 148.785156 C 59.429688 148.785156 64.417969 153.59375 117.042969 154.464844 C 126.574219 154.625 134.957031 154.351562 142.308594 153.796875 L 142.308594 189.484375 L 145.261719 189.40625 L 145.261719 153.554688 C 148.589844 153.261719 151.683594 152.90625 154.566406 152.511719 L 154.566406 189.152344 L 187.507812 188.265625 L 220.449219 189.152344 L 220.449219 152.511719 C 223.332031 152.90625 226.425781 153.261719 229.753906 153.554688 L 229.753906 189.40625 L 232.707031 189.484375 L 232.707031 153.796875 C 240.058594 154.351562 248.441406 154.625 257.972656 154.464844 C 310.601562 153.59375 315.585938 148.785156 315.585938 148.785156 L 315.585938 145.28125 C 315.585938 145.28125 310.601562 150.09375 257.972656 150.964844 " fill-opacity="1" fill-rule="nonzero"/></g><g clip-path="url(#5f38baadf2)"><path fill="#d5c645" d="M 187.507812 351.523438 L 109.855469 351.523438 L 109.855469 353.488281 L 265.15625 353.488281 L 265.15625 351.523438 Z M 260.222656 307.523438 C 209.160156 306.304688 195.710938 303.992188 187.507812 300.734375 C 179.304688 303.992188 165.855469 306.304688 114.792969 307.523438 C 63.734375 308.746094 51.738281 302.769531 51.738281 302.769531 L 51.738281 305.175781 C 51.738281 305.175781 63.734375 311.152344 114.792969 309.929688 C 165.855469 308.707031 179.304688 306.398438 187.507812 303.136719 C 195.710938 306.398438 209.160156 308.707031 260.222656 309.929688 C 311.28125 311.152344 323.277344 305.175781 323.277344 305.175781 L 323.277344 302.769531 C 323.277344 302.769531 311.28125 308.746094 260.222656 307.523438 Z M 187.507812 270.871094 L 109.855469 270.871094 L 109.855469 272.839844 L 265.15625 272.839844 L 265.15625 270.871094 Z M 257.972656 147.566406 C 205.347656 148.441406 187.507812 136.164062 187.507812 136.164062 C 187.507812 136.164062 169.667969 148.441406 117.042969 147.566406 C 64.417969 146.695312 59.429688 141.886719 59.429688 141.886719 L 59.429688 145.390625 C 59.429688 145.390625 64.417969 150.195312 117.042969 151.070312 C 169.667969 151.945312 187.507812 139.664062 187.507812 139.664062 C 187.507812 139.664062 205.347656 151.945312 257.972656 151.070312 C 310.601562 150.195312 315.585938 145.390625 315.585938 145.390625 L 315.585938 141.886719 C 315.585938 141.886719 310.601562 146.695312 257.972656 147.566406 Z M 187.507812 188.265625 L 114.792969 190.230469 L 114.792969 192.199219 L 187.507812 190.230469 L 260.222656 192.199219 L 260.222656 190.230469 Z M 323.277344 222.121094 L 323.277344 224.523438 C 323.277344 224.523438 311.28125 230.5 260.222656 229.277344 C 209.160156 228.054688 195.710938 225.746094 187.507812 222.484375 C 179.304688 225.746094 165.855469 228.054688 114.792969 229.277344 C 63.734375 230.5 51.738281 224.523438 51.738281 224.523438 L 51.738281 222.121094 C 51.738281 222.121094 63.734375 228.09375 114.792969 226.875 C 165.855469 225.652344 179.304688 223.339844 187.507812 220.082031 C 195.710938 223.339844 209.160156 225.652344 260.222656 226.875 C 311.28125 228.09375 323.277344 222.121094 323.277344 222.121094 " fill-opacity="1" fill-rule="nonzero"/></g><path fill="#ececec" d="M 187.507812 353.488281 L 111.898438 353.488281 L 111.898438 361.648438 L 187.507812 361.703125 L 263.117188 361.648438 L 263.117188 353.488281 Z M 184.683594 303.863281 Z M 138.1875 311.320312 L 138.1875 327.863281 L 147.492188 327.804688 L 147.492188 310.886719 C 144.609375 311.039062 141.515625 311.183594 138.1875 311.320312 Z M 167.851562 309.355469 L 167.851562 327.671875 L 184.683594 327.566406 L 184.683594 306.265625 C 180.96875 307.441406 175.96875 308.472656 167.851562 309.355469 Z M 151.917969 310.636719 L 151.917969 327.773438 L 163.429688 327.703125 L 163.429688 309.789062 C 160.074219 310.09375 156.265625 310.378906 151.917969 310.636719 Z M 190.328125 303.863281 Z M 227.523438 310.886719 L 227.523438 327.804688 L 236.828125 327.863281 L 236.828125 311.320312 C 233.496094 311.183594 230.40625 311.039062 227.523438 310.886719 Z M 190.328125 306.265625 L 190.328125 327.566406 L 207.160156 327.671875 L 207.160156 309.355469 C 199.046875 308.472656 194.046875 307.441406 190.328125 306.265625 Z M 211.585938 309.789062 L 211.585938 327.703125 L 223.097656 327.773438 L 223.097656 310.636719 C 218.75 310.378906 214.941406 310.09375 211.585938 309.789062 Z M 158.992188 151.847656 L 158.992188 176.804688 L 170.625 176.492188 L 170.625 149.453125 C 167.308594 150.296875 163.449219 151.117188 158.992188 151.847656 Z M 184.683594 144.597656 C 182.679688 145.558594 179.535156 146.871094 175.046875 148.226562 L 175.046875 176.375 L 184.683594 176.117188 Z M 154.566406 152.511719 C 151.683594 152.90625 148.589844 153.261719 145.261719 153.554688 L 145.261719 177.171875 L 154.566406 176.917969 Z M 187.507812 272.839844 L 111.898438 272.839844 L 111.898438 280.996094 L 187.507812 281.050781 L 263.117188 280.996094 L 263.117188 272.839844 Z M 184.683594 223.210938 Z M 138.1875 230.667969 L 138.1875 247.210938 L 147.492188 247.152344 L 147.492188 230.234375 C 144.609375 230.386719 141.515625 230.53125 138.1875 230.667969 Z M 167.851562 228.703125 L 167.851562 247.023438 L 184.683594 246.914062 L 184.683594 225.617188 C 180.96875 226.789062 175.96875 227.824219 167.851562 228.703125 Z M 151.917969 229.988281 L 151.917969 247.121094 L 163.429688 247.050781 L 163.429688 229.140625 C 160.074219 229.441406 156.265625 229.726562 151.917969 229.988281 Z M 187.507812 190.230469 L 116.839844 192.199219 L 116.839844 200.355469 L 187.507812 198.441406 L 258.175781 200.355469 L 258.175781 192.199219 Z M 204.390625 149.453125 L 204.390625 176.492188 L 216.023438 176.804688 L 216.023438 151.847656 C 211.566406 151.117188 207.707031 150.296875 204.390625 149.453125 Z M 190.328125 176.117188 L 199.964844 176.375 L 199.964844 148.226562 C 195.480469 146.871094 192.335938 145.558594 190.328125 144.597656 Z M 220.449219 176.917969 L 229.753906 177.171875 L 229.753906 153.554688 C 226.425781 153.261719 223.332031 152.90625 220.449219 152.511719 Z M 190.328125 223.210938 Z M 227.523438 230.234375 L 227.523438 247.152344 L 236.828125 247.210938 L 236.828125 230.667969 C 233.496094 230.53125 230.40625 230.386719 227.523438 230.234375 Z M 190.328125 225.617188 L 190.328125 246.914062 L 207.160156 247.023438 L 207.160156 228.703125 C 199.046875 227.824219 194.046875 226.789062 190.328125 225.617188 Z M 223.097656 229.988281 L 223.097656 247.121094 L 211.585938 247.050781 L 211.585938 229.140625 C 214.941406 229.441406 218.75 229.726562 223.097656 229.988281 " fill-opacity="1" fill-rule="nonzero"/><path fill="#559350" d="M 147.492188 341.445312 L 138.1875 341.445312 L 138.1875 351.523438 L 147.492188 351.523438 Z M 227.523438 351.523438 L 236.828125 351.523438 L 236.828125 341.445312 L 227.523438 341.445312 Z M 147.492188 260.792969 L 138.1875 260.792969 L 138.1875 270.871094 L 147.492188 270.871094 Z M 154.566406 178.363281 L 145.261719 178.625 L 145.261719 189.390625 L 154.566406 189.140625 Z M 227.523438 270.871094 L 236.828125 270.871094 L 236.828125 260.792969 L 227.523438 260.792969 Z M 220.449219 178.363281 L 229.753906 178.625 L 229.753906 189.390625 L 220.449219 189.140625 L 220.449219 178.363281 " fill-opacity="1" fill-rule="nonzero"/><g clip-path="url(#932aeb4d81)"><path fill="#3d658c" d="M 187.507812 330.488281 L 131.113281 329.71875 L 131.113281 332.675781 L 187.507812 333.441406 L 243.902344 332.675781 L 243.902344 329.71875 Z M 187.507812 337.738281 L 131.113281 336.972656 L 131.113281 339.921875 L 187.507812 340.691406 L 243.902344 339.921875 L 243.902344 336.972656 Z M 319.605469 299.128906 L 320.964844 298.042969 L 320.964844 291.523438 C 313.222656 296.824219 304.558594 292.609375 304.558594 292.609375 L 304.558594 288.941406 C 304.558594 288.941406 298.144531 290.300781 284.558594 288.941406 C 270.972656 287.582031 265.15625 281.050781 265.15625 281.050781 L 265.15625 283.019531 L 109.855469 283.019531 L 109.855469 281.050781 C 109.855469 281.050781 104.042969 287.582031 90.457031 288.941406 C 76.871094 290.300781 70.457031 288.941406 70.457031 288.941406 L 70.457031 292.609375 C 70.457031 292.609375 61.792969 296.824219 54.050781 291.523438 L 54.050781 298.042969 L 55.410156 299.128906 L 51.738281 300.214844 L 51.738281 302.621094 C 51.738281 302.621094 63.734375 308.597656 114.792969 307.375 C 165.855469 306.152344 179.304688 303.84375 187.507812 300.582031 C 195.710938 303.84375 209.160156 306.152344 260.222656 307.375 C 311.28125 308.597656 323.277344 302.621094 323.277344 302.621094 L 323.277344 300.214844 Z M 187.507812 249.839844 L 131.113281 249.070312 L 131.113281 252.023438 L 187.507812 252.789062 L 243.902344 252.023438 L 243.902344 249.070312 Z M 187.507812 257.089844 L 131.113281 256.320312 L 131.113281 259.273438 L 187.507812 260.039062 L 243.902344 259.273438 L 243.902344 256.320312 Z M 187.507812 167.226562 L 138.664062 168.609375 L 138.664062 171.558594 L 187.507812 170.179688 L 236.351562 171.558594 L 236.351562 168.609375 Z M 187.507812 174.476562 L 138.664062 175.859375 L 138.664062 178.8125 L 187.507812 177.433594 L 236.351562 178.8125 L 236.351562 175.859375 Z M 295.898438 131.207031 L 295.179688 126.0625 C 278.410156 125.648438 275.320312 125.03125 246.105469 110.113281 C 216.882812 95.195312 207.109375 85.214844 207.109375 85.214844 L 207.046875 85.234375 C 207.085938 84.996094 207.109375 84.75 207.109375 84.496094 C 207.109375 82.621094 206.003906 81.101562 204.640625 81.101562 L 202.785156 81.101562 L 202.785156 72.917969 L 192.101562 72.488281 L 187.507812 11.324219 L 182.914062 72.488281 L 172.226562 72.917969 L 172.226562 81.101562 L 170.375 81.101562 C 169.011719 81.101562 167.90625 82.621094 167.90625 84.496094 C 167.90625 84.75 167.929688 84.996094 167.96875 85.234375 L 167.90625 85.214844 C 167.90625 85.214844 158.132812 95.195312 128.914062 110.113281 C 99.691406 125.03125 96.605469 125.648438 79.835938 126.0625 L 79.117188 131.207031 C 79.117188 131.207031 64.703125 131.464844 59.429688 130.984375 L 59.429688 141.886719 C 59.429688 141.886719 64.417969 146.695312 117.042969 147.566406 C 169.667969 148.441406 187.507812 136.164062 187.507812 136.164062 C 187.507812 136.164062 205.347656 148.441406 257.972656 147.566406 C 310.601562 146.695312 315.585938 141.886719 315.585938 141.886719 L 315.585938 130.984375 C 310.3125 131.464844 295.898438 131.207031 295.898438 131.207031 Z M 323.277344 219.566406 L 323.277344 221.96875 C 323.277344 221.96875 311.28125 227.945312 260.222656 226.726562 C 209.160156 225.503906 195.710938 223.191406 187.507812 219.929688 C 179.304688 223.191406 165.855469 225.503906 114.792969 226.726562 C 63.734375 227.945312 51.738281 221.96875 51.738281 221.96875 L 51.738281 219.566406 L 55.410156 218.480469 L 54.050781 217.394531 L 54.050781 210.871094 C 61.792969 216.171875 70.457031 211.960938 70.457031 211.960938 L 70.457031 208.289062 C 70.457031 208.289062 76.871094 209.648438 90.457031 208.289062 C 104.042969 206.933594 114.792969 200.410156 114.792969 200.410156 L 114.792969 202.378906 L 184.554688 200.492188 C 185.011719 199.804688 185.875 199.1875 187.507812 199.1875 C 189.140625 199.1875 190.003906 199.804688 190.460938 200.492188 L 260.222656 202.378906 L 260.222656 200.410156 C 260.222656 200.410156 270.972656 206.933594 284.558594 208.289062 C 298.144531 209.648438 304.558594 208.289062 304.558594 208.289062 L 304.558594 211.960938 C 304.558594 211.960938 313.222656 216.171875 320.964844 210.871094 L 320.964844 217.394531 L 319.605469 218.480469 L 323.277344 219.566406 " fill-opacity="1" fill-rule="nonzero"/></g></svg>