<svg xmlns="http://www.w3.org/2000/svg" xmlns:xlink="http://www.w3.org/1999/xlink" width="500" zoomAndPan="magnify" viewBox="0 0 375 374.999991" height="500" preserveAspectRatio="xMidYMid meet" version="1.0"><defs><clipPath id="e6a3abfc05"><path d="M 59.449219 115 L 315.480469 115 L 315.480469 313.671875 L 59.449219 313.671875 Z M 59.449219 115 " clip-rule="nonzero"/></clipPath><clipPath id="208dd66f89"><path d="M 43 84.621094 L 332 84.621094 L 332 313.671875 L 43 313.671875 Z M 43 84.621094 " clip-rule="nonzero"/></clipPath><clipPath id="94db00850d"><path d="M 19 61.675781 L 356 61.675781 L 356 177 L 19 177 Z M 19 61.675781 " clip-rule="nonzero"/></clipPath></defs><g clip-path="url(#e6a3abfc05)"><path fill="#d12c23" d="M 104.820312 129.285156 C 107.921875 127.957031 111.421875 126.117188 111.847656 124.429688 C 112.082031 123.488281 112.210938 121.945312 112.277344 120.539062 L 112.277344 130.695312 Z M 125.292969 124.429688 C 125.710938 126.117188 129.214844 127.957031 132.3125 129.285156 L 124.859375 130.695312 L 124.859375 120.546875 C 124.929688 121.949219 125.054688 123.488281 125.292969 124.429688 Z M 242.613281 129.285156 C 245.710938 127.957031 249.210938 126.117188 249.632812 124.433594 C 249.871094 123.488281 249.996094 121.945312 250.066406 120.542969 L 250.066406 130.695312 Z M 263.082031 124.433594 C 263.5 126.117188 267.003906 127.957031 270.105469 129.285156 L 262.648438 130.695312 L 262.648438 120.542969 C 262.71875 121.945312 262.847656 123.488281 263.082031 124.433594 Z M 315.460938 132.128906 L 315.457031 132.128906 C 300.699219 133.753906 277.796875 134.441406 268.332031 134.441406 C 267.179688 134.441406 265.214844 134.441406 262.648438 134.441406 L 262.648438 132.128906 L 270.257812 132.128906 L 270.257812 129.351562 C 271.097656 129.707031 271.90625 130.023438 272.605469 130.289062 L 273.382812 128.222656 C 269.382812 126.707031 265.566406 124.675781 265.222656 123.894531 C 264.855469 122.417969 264.773438 118.679688 264.773438 117.363281 L 262.648438 117.363281 L 262.648438 115.390625 L 250.066406 115.390625 L 250.066406 117.363281 L 247.945312 117.363281 C 247.945312 118.679688 247.863281 122.417969 247.503906 123.867188 C 247.152344 124.675781 243.332031 126.707031 239.332031 128.222656 L 240.113281 130.289062 C 240.8125 130.023438 241.621094 129.707031 242.457031 129.351562 L 242.457031 132.128906 L 250.066406 132.128906 L 250.066406 134.441406 C 225.808594 134.441406 187.464844 134.441406 187.464844 134.441406 C 187.464844 134.441406 149.117188 134.441406 124.859375 134.441406 L 124.859375 132.128906 L 132.46875 132.128906 L 132.46875 129.351562 C 133.304688 129.707031 134.113281 130.023438 134.816406 130.289062 L 135.59375 128.222656 C 131.59375 126.707031 127.773438 124.675781 127.433594 123.894531 C 127.0625 122.417969 126.980469 118.679688 126.980469 117.363281 L 124.859375 117.363281 L 124.859375 115.390625 L 112.277344 115.390625 L 112.277344 117.363281 L 110.152344 117.363281 C 110.152344 118.679688 110.074219 122.417969 109.710938 123.867188 C 109.363281 124.675781 105.542969 126.707031 101.542969 128.222656 L 102.320312 130.289062 C 103.019531 130.023438 103.828125 129.707031 104.667969 129.351562 L 104.667969 132.128906 L 112.277344 132.128906 L 112.277344 134.441406 C 109.710938 134.441406 107.746094 134.441406 106.59375 134.441406 C 97.132812 134.441406 74.226562 133.753906 59.472656 132.128906 L 59.464844 132.128906 L 59.464844 146.0625 L 112.277344 146.0625 L 112.277344 313.671875 L 124.859375 313.671875 L 124.859375 146.0625 L 250.066406 146.0625 L 250.066406 313.671875 L 262.648438 313.671875 L 262.648438 146.0625 L 315.460938 146.0625 L 315.460938 132.128906 " fill-opacity="1" fill-rule="nonzero"/></g><g clip-path="url(#208dd66f89)"><path fill="#b31e23" d="M 257.625 178.933594 L 257.625 184.320312 L 260.160156 184.320312 L 260.160156 313.671875 L 272.746094 313.671875 L 272.746094 184.320312 L 275.28125 184.320312 L 275.28125 178.933594 Z M 99.644531 184.320312 L 102.183594 184.320312 L 102.183594 313.671875 L 114.761719 313.671875 L 114.761719 184.320312 L 117.300781 184.320312 L 117.300781 178.933594 L 99.644531 178.933594 Z M 331.828125 84.695312 C 312.582031 87.753906 270.914062 93.144531 218.753906 92.617188 L 216.546875 96.300781 L 158.378906 96.300781 L 156.171875 92.617188 C 104.011719 93.144531 62.34375 87.753906 43.097656 84.695312 L 46.164062 93.625 L 56.511719 96.300781 L 59.59375 107.742188 C 59.59375 107.742188 69.515625 109.628906 108.050781 110.867188 L 108.050781 115.984375 C 108.050781 116.933594 112.757812 117.707031 118.566406 117.707031 C 124.375 117.707031 129.085938 116.933594 129.085938 115.984375 L 129.085938 111.410156 C 144.921875 111.726562 164.160156 111.929688 187.464844 111.929688 C 210.769531 111.929688 230.003906 111.726562 245.839844 111.410156 L 245.839844 115.984375 C 245.839844 116.933594 250.550781 117.707031 256.359375 117.707031 C 262.167969 117.707031 266.875 116.933594 266.875 115.984375 L 266.875 110.867188 C 305.410156 109.628906 315.332031 107.742188 315.332031 107.742188 L 318.414062 96.300781 L 328.761719 93.625 Z M 317.875 129.253906 L 317.875 131.847656 C 303.332031 133.675781 278.328125 134.441406 268.332031 134.441406 C 258.335938 134.441406 187.464844 134.441406 187.464844 134.441406 C 187.464844 134.441406 116.589844 134.441406 106.59375 134.441406 C 96.597656 134.441406 71.59375 133.675781 57.050781 131.847656 L 57.050781 129.253906 C 57.050781 129.253906 76.296875 132.128906 104.667969 132.128906 C 133.039062 132.128906 187.464844 132.128906 187.464844 132.128906 C 187.464844 132.128906 241.886719 132.128906 270.257812 132.128906 C 298.628906 132.128906 317.875 129.253906 317.875 129.253906 " fill-opacity="1" fill-rule="nonzero"/></g><path fill="#657368" d="M 253.609375 175.933594 C 253.898438 178.542969 257.625 178.933594 257.625 178.933594 L 275.28125 178.933594 C 275.28125 178.933594 279.007812 178.542969 279.300781 175.933594 C 279.300781 175.933594 278.140625 176.902344 273.894531 176.902344 C 272.101562 176.902344 269.203125 176.761719 266.453125 176.664062 C 263.703125 176.761719 260.804688 176.902344 259.011719 176.902344 C 254.765625 176.902344 253.609375 175.933594 253.609375 175.933594 Z M 347.796875 71.164062 C 331.582031 76.011719 287.707031 85.160156 187.464844 85.160156 L 187.464844 85.164062 L 187.464844 85.160156 C 87.21875 85.160156 43.34375 76.011719 27.128906 71.164062 L 27.03125 71.15625 L 31.523438 82.667969 C 31.523438 82.667969 83.738281 93.351562 156.171875 92.617188 L 158.378906 96.300781 L 216.546875 96.300781 L 218.753906 92.617188 C 291.1875 93.351562 343.402344 82.667969 343.402344 82.667969 L 347.894531 71.15625 Z M 121.316406 175.933594 C 121.027344 178.542969 117.300781 178.933594 117.300781 178.933594 L 99.644531 178.933594 C 99.644531 178.933594 95.914062 178.542969 95.625 175.933594 C 95.628906 175.933594 96.785156 176.902344 101.03125 176.902344 C 102.828125 176.902344 105.722656 176.761719 108.472656 176.664062 C 111.222656 176.761719 114.121094 176.902344 115.914062 176.902344 C 120.160156 176.902344 121.316406 175.933594 121.316406 175.933594 " fill-opacity="1" fill-rule="nonzero"/><g clip-path="url(#94db00850d)"><path fill="#8aa48b" d="M 253.609375 175.933594 C 253.609375 175.933594 254.765625 176.902344 259.011719 176.902344 C 260.804688 176.902344 263.703125 176.761719 266.453125 176.664062 C 269.203125 176.761719 272.101562 176.902344 273.894531 176.902344 C 278.144531 176.902344 279.300781 175.933594 279.300781 175.933594 C 279.300781 175.933594 270.785156 173.90625 266.453125 172.164062 C 262.125 173.90625 253.609375 175.933594 253.609375 175.933594 Z M 187.464844 78.617188 C 51.046875 78.617188 19.023438 61.675781 19.023438 61.675781 L 19.023438 68.21875 C 19.023438 68.21875 51.046875 85.160156 187.464844 85.160156 C 323.878906 85.160156 355.90625 68.21875 355.90625 68.21875 L 355.90625 61.675781 C 355.90625 61.675781 323.878906 78.617188 187.464844 78.617188 Z M 121.316406 175.933594 C 121.316406 175.933594 120.160156 176.902344 115.914062 176.902344 C 114.121094 176.902344 111.222656 176.761719 108.472656 176.664062 C 105.722656 176.761719 102.828125 176.902344 101.03125 176.902344 C 96.785156 176.902344 95.625 175.933594 95.625 175.933594 C 95.625 175.933594 104.140625 173.90625 108.472656 172.164062 C 112.800781 173.90625 121.316406 175.933594 121.316406 175.933594 " fill-opacity="1" fill-rule="nonzero"/></g></svg>